<svg width="246" height="53" viewBox="0 0 246 53" fill="none" xmlns="http://www.w3.org/2000/svg">
<rect x="4" y="5" width="242" height="43" rx="21.5" fill="url(#paint0_linear_295_16)"/>
<rect x="4.5" y="5.5" width="241" height="42" rx="21" stroke="black" stroke-opacity="0.06"/>
<path d="M65.865 32L70.545 21.5H72.945L77.64 32H75.09L71.25 22.73H72.21L68.355 32H65.865ZM68.205 29.75L68.85 27.905H74.25L74.91 29.75H68.205ZM81.8061 32.12C81.0461 32.12 80.3611 31.95 79.7511 31.61C79.1411 31.26 78.6561 30.775 78.2961 30.155C77.9461 29.535 77.7711 28.805 77.7711 27.965C77.7711 27.115 77.9461 26.38 78.2961 25.76C78.6561 25.14 79.1411 24.66 79.7511 24.32C80.3611 23.98 81.0461 23.81 81.8061 23.81C82.4861 23.81 83.0811 23.96 83.5911 24.26C84.1011 24.56 84.4961 25.015 84.7761 25.625C85.0561 26.235 85.1961 27.015 85.1961 27.965C85.1961 28.905 85.0611 29.685 84.7911 30.305C84.5211 30.915 84.1311 31.37 83.6211 31.67C83.1211 31.97 82.5161 32.12 81.8061 32.12ZM82.2111 30.2C82.5911 30.2 82.9361 30.11 83.2461 29.93C83.5561 29.75 83.8011 29.495 83.9811 29.165C84.1711 28.825 84.2661 28.425 84.2661 27.965C84.2661 27.495 84.1711 27.095 83.9811 26.765C83.8011 26.435 83.5561 26.18 83.2461 26C82.9361 25.82 82.5911 25.73 82.2111 25.73C81.8211 25.73 81.4711 25.82 81.1611 26C80.8511 26.18 80.6011 26.435 80.4111 26.765C80.2311 27.095 80.1411 27.495 80.1411 27.965C80.1411 28.425 80.2311 28.825 80.4111 29.165C80.6011 29.495 80.8511 29.75 81.1611 29.93C81.4711 30.11 81.8211 30.2 82.2111 30.2ZM84.3261 32V30.35L84.3711 27.95L84.2211 25.565V20.87H86.5611V32H84.3261ZM88.5769 32V23.93H90.9169V32H88.5769ZM89.7469 22.805C89.3169 22.805 88.9669 22.68 88.6969 22.43C88.4269 22.18 88.2919 21.87 88.2919 21.5C88.2919 21.13 88.4269 20.82 88.6969 20.57C88.9669 20.32 89.3169 20.195 89.7469 20.195C90.1769 20.195 90.5269 20.315 90.7969 20.555C91.0669 20.785 91.2019 21.085 91.2019 21.455C91.2019 21.845 91.0669 22.17 90.7969 22.43C90.5369 22.68 90.1869 22.805 89.7469 22.805ZM96.8386 32.12C95.9686 32.12 95.1936 31.945 94.5136 31.595C93.8336 31.235 93.2986 30.74 92.9086 30.11C92.5286 29.48 92.3386 28.765 92.3386 27.965C92.3386 27.155 92.5286 26.44 92.9086 25.82C93.2986 25.19 93.8336 24.7 94.5136 24.35C95.1936 23.99 95.9686 23.81 96.8386 23.81C97.6886 23.81 98.4286 23.99 99.0586 24.35C99.6886 24.7 100.154 25.205 100.454 25.865L98.6386 26.84C98.4286 26.46 98.1636 26.18 97.8436 26C97.5336 25.82 97.1936 25.73 96.8236 25.73C96.4236 25.73 96.0636 25.82 95.7436 26C95.4236 26.18 95.1686 26.435 94.9786 26.765C94.7986 27.095 94.7086 27.495 94.7086 27.965C94.7086 28.435 94.7986 28.835 94.9786 29.165C95.1686 29.495 95.4236 29.75 95.7436 29.93C96.0636 30.11 96.4236 30.2 96.8236 30.2C97.1936 30.2 97.5336 30.115 97.8436 29.945C98.1636 29.765 98.4286 29.48 98.6386 29.09L100.454 30.08C100.154 30.73 99.6886 31.235 99.0586 31.595C98.4286 31.945 97.6886 32.12 96.8386 32.12ZM101.607 32V23.93H103.947V32H101.607ZM102.777 22.805C102.347 22.805 101.997 22.68 101.727 22.43C101.457 22.18 101.322 21.87 101.322 21.5C101.322 21.13 101.457 20.82 101.727 20.57C101.997 20.32 102.347 20.195 102.777 20.195C103.207 20.195 103.557 20.315 103.827 20.555C104.097 20.785 104.232 21.085 104.232 21.455C104.232 21.845 104.097 22.17 103.827 22.43C103.567 22.68 103.217 22.805 102.777 22.805ZM109.809 32.12C108.949 32.12 108.184 31.94 107.514 31.58C106.854 31.22 106.329 30.73 105.939 30.11C105.559 29.48 105.369 28.765 105.369 27.965C105.369 27.155 105.559 26.44 105.939 25.82C106.329 25.19 106.854 24.7 107.514 24.35C108.184 23.99 108.949 23.81 109.809 23.81C110.659 23.81 111.419 23.99 112.089 24.35C112.759 24.7 113.284 25.185 113.664 25.805C114.044 26.425 114.234 27.145 114.234 27.965C114.234 28.765 114.044 29.48 113.664 30.11C113.284 30.73 112.759 31.22 112.089 31.58C111.419 31.94 110.659 32.12 109.809 32.12ZM109.809 30.2C110.199 30.2 110.549 30.11 110.859 29.93C111.169 29.75 111.414 29.495 111.594 29.165C111.774 28.825 111.864 28.425 111.864 27.965C111.864 27.495 111.774 27.095 111.594 26.765C111.414 26.435 111.169 26.18 110.859 26C110.549 25.82 110.199 25.73 109.809 25.73C109.419 25.73 109.069 25.82 108.759 26C108.449 26.18 108.199 26.435 108.009 26.765C107.829 27.095 107.739 27.495 107.739 27.965C107.739 28.425 107.829 28.825 108.009 29.165C108.199 29.495 108.449 29.75 108.759 29.93C109.069 30.11 109.419 30.2 109.809 30.2ZM120.553 23.81C121.193 23.81 121.763 23.94 122.263 24.2C122.773 24.45 123.173 24.84 123.463 25.37C123.753 25.89 123.898 26.56 123.898 27.38V32H121.558V27.74C121.558 27.09 121.413 26.61 121.123 26.3C120.843 25.99 120.443 25.835 119.923 25.835C119.553 25.835 119.218 25.915 118.918 26.075C118.628 26.225 118.398 26.46 118.228 26.78C118.068 27.1 117.988 27.51 117.988 28.01V32H115.648V23.93H117.883V26.165L117.463 25.49C117.753 24.95 118.168 24.535 118.708 24.245C119.248 23.955 119.863 23.81 120.553 23.81ZM130.819 32V30.425L130.669 30.08V27.26C130.669 26.76 130.514 26.37 130.204 26.09C129.904 25.81 129.439 25.67 128.809 25.67C128.379 25.67 127.954 25.74 127.534 25.88C127.124 26.01 126.774 26.19 126.484 26.42L125.644 24.785C126.084 24.475 126.614 24.235 127.234 24.065C127.854 23.895 128.484 23.81 129.124 23.81C130.354 23.81 131.309 24.1 131.989 24.68C132.669 25.26 133.009 26.165 133.009 27.395V32H130.819ZM128.359 32.12C127.729 32.12 127.189 32.015 126.739 31.805C126.289 31.585 125.944 31.29 125.704 30.92C125.464 30.55 125.344 30.135 125.344 29.675C125.344 29.195 125.459 28.775 125.689 28.415C125.929 28.055 126.304 27.775 126.814 27.575C127.324 27.365 127.989 27.26 128.809 27.26H130.954V28.625H129.064C128.514 28.625 128.134 28.715 127.924 28.895C127.724 29.075 127.624 29.3 127.624 29.57C127.624 29.87 127.739 30.11 127.969 30.29C128.209 30.46 128.534 30.545 128.944 30.545C129.334 30.545 129.684 30.455 129.994 30.275C130.304 30.085 130.529 29.81 130.669 29.45L131.029 30.53C130.859 31.05 130.549 31.445 130.099 31.715C129.649 31.985 129.069 32.12 128.359 32.12ZM134.977 32V23.93H137.212V26.21L136.897 25.55C137.137 24.98 137.522 24.55 138.052 24.26C138.582 23.96 139.227 23.81 139.987 23.81V25.97C139.887 25.96 139.797 25.955 139.717 25.955C139.637 25.945 139.552 25.94 139.462 25.94C138.822 25.94 138.302 26.125 137.902 26.495C137.512 26.855 137.317 27.42 137.317 28.19V32H134.977ZM150.335 32V30.425L150.185 30.08V27.26C150.185 26.76 150.03 26.37 149.72 26.09C149.42 25.81 148.955 25.67 148.325 25.67C147.895 25.67 147.47 25.74 147.05 25.88C146.64 26.01 146.29 26.19 146 26.42L145.16 24.785C145.6 24.475 146.13 24.235 146.75 24.065C147.37 23.895 148 23.81 148.64 23.81C149.87 23.81 150.825 24.1 151.505 24.68C152.185 25.26 152.525 26.165 152.525 27.395V32H150.335ZM147.875 32.12C147.245 32.12 146.705 32.015 146.255 31.805C145.805 31.585 145.46 31.29 145.22 30.92C144.98 30.55 144.86 30.135 144.86 29.675C144.86 29.195 144.975 28.775 145.205 28.415C145.445 28.055 145.82 27.775 146.33 27.575C146.84 27.365 147.505 27.26 148.325 27.26H150.47V28.625H148.58C148.03 28.625 147.65 28.715 147.44 28.895C147.24 29.075 147.14 29.3 147.14 29.57C147.14 29.87 147.255 30.11 147.485 30.29C147.725 30.46 148.05 30.545 148.46 30.545C148.85 30.545 149.2 30.455 149.51 30.275C149.82 30.085 150.045 29.81 150.185 29.45L150.545 30.53C150.375 31.05 150.065 31.445 149.615 31.715C149.165 31.985 148.585 32.12 147.875 32.12ZM157.792 32.12C156.842 32.12 156.102 31.88 155.572 31.4C155.042 30.91 154.777 30.185 154.777 29.225V22.145H157.117V29.195C157.117 29.535 157.207 29.8 157.387 29.99C157.567 30.17 157.812 30.26 158.122 30.26C158.492 30.26 158.807 30.16 159.067 29.96L159.697 31.61C159.457 31.78 159.167 31.91 158.827 32C158.497 32.08 158.152 32.12 157.792 32.12ZM153.532 25.91V24.11H159.127V25.91H153.532ZM160.861 32V23.93H163.201V32H160.861ZM162.031 22.805C161.601 22.805 161.251 22.68 160.981 22.43C160.711 22.18 160.576 21.87 160.576 21.5C160.576 21.13 160.711 20.82 160.981 20.57C161.251 20.32 161.601 20.195 162.031 20.195C162.461 20.195 162.811 20.315 163.081 20.555C163.351 20.785 163.486 21.085 163.486 21.455C163.486 21.845 163.351 22.17 163.081 22.43C162.821 22.68 162.471 22.805 162.031 22.805ZM167.413 32L164.023 23.93H166.438L169.258 30.875H168.058L170.983 23.93H173.233L169.828 32H167.413ZM174.038 32V23.93H176.378V32H174.038ZM175.208 22.805C174.778 22.805 174.428 22.68 174.158 22.43C173.888 22.18 173.753 21.87 173.753 21.5C173.753 21.13 173.888 20.82 174.158 20.57C174.428 20.32 174.778 20.195 175.208 20.195C175.638 20.195 175.988 20.315 176.258 20.555C176.528 20.785 176.663 21.085 176.663 21.455C176.663 21.845 176.528 22.17 176.258 22.43C175.998 22.68 175.648 22.805 175.208 22.805ZM181.864 32.12C181.104 32.12 180.419 31.95 179.809 31.61C179.199 31.26 178.714 30.775 178.354 30.155C178.004 29.535 177.829 28.805 177.829 27.965C177.829 27.115 178.004 26.38 178.354 25.76C178.714 25.14 179.199 24.66 179.809 24.32C180.419 23.98 181.104 23.81 181.864 23.81C182.544 23.81 183.139 23.96 183.649 24.26C184.159 24.56 184.554 25.015 184.834 25.625C185.114 26.235 185.254 27.015 185.254 27.965C185.254 28.905 185.119 29.685 184.849 30.305C184.579 30.915 184.189 31.37 183.679 31.67C183.179 31.97 182.574 32.12 181.864 32.12ZM182.269 30.2C182.649 30.2 182.994 30.11 183.304 29.93C183.614 29.75 183.859 29.495 184.039 29.165C184.229 28.825 184.324 28.425 184.324 27.965C184.324 27.495 184.229 27.095 184.039 26.765C183.859 26.435 183.614 26.18 183.304 26C182.994 25.82 182.649 25.73 182.269 25.73C181.879 25.73 181.529 25.82 181.219 26C180.909 26.18 180.659 26.435 180.469 26.765C180.289 27.095 180.199 27.495 180.199 27.965C180.199 28.425 180.289 28.825 180.469 29.165C180.659 29.495 180.909 29.75 181.219 29.93C181.529 30.11 181.879 30.2 182.269 30.2ZM184.384 32V30.35L184.429 27.95L184.279 25.565V20.87H186.619V32H184.384ZM193.585 32V30.425L193.435 30.08V27.26C193.435 26.76 193.28 26.37 192.97 26.09C192.67 25.81 192.205 25.67 191.575 25.67C191.145 25.67 190.72 25.74 190.3 25.88C189.89 26.01 189.54 26.19 189.25 26.42L188.41 24.785C188.85 24.475 189.38 24.235 190 24.065C190.62 23.895 191.25 23.81 191.89 23.81C193.12 23.81 194.075 24.1 194.755 24.68C195.435 25.26 195.775 26.165 195.775 27.395V32H193.585ZM191.125 32.12C190.495 32.12 189.955 32.015 189.505 31.805C189.055 31.585 188.71 31.29 188.47 30.92C188.23 30.55 188.11 30.135 188.11 29.675C188.11 29.195 188.225 28.775 188.455 28.415C188.695 28.055 189.07 27.775 189.58 27.575C190.09 27.365 190.755 27.26 191.575 27.26H193.72V28.625H191.83C191.28 28.625 190.9 28.715 190.69 28.895C190.49 29.075 190.39 29.3 190.39 29.57C190.39 29.87 190.505 30.11 190.735 30.29C190.975 30.46 191.3 30.545 191.71 30.545C192.1 30.545 192.45 30.455 192.76 30.275C193.07 30.085 193.295 29.81 193.435 29.45L193.795 30.53C193.625 31.05 193.315 31.445 192.865 31.715C192.415 31.985 191.835 32.12 191.125 32.12ZM201.266 32.12C200.506 32.12 199.821 31.95 199.211 31.61C198.601 31.26 198.116 30.775 197.756 30.155C197.406 29.535 197.231 28.805 197.231 27.965C197.231 27.115 197.406 26.38 197.756 25.76C198.116 25.14 198.601 24.66 199.211 24.32C199.821 23.98 200.506 23.81 201.266 23.81C201.946 23.81 202.541 23.96 203.051 24.26C203.561 24.56 203.956 25.015 204.236 25.625C204.516 26.235 204.656 27.015 204.656 27.965C204.656 28.905 204.521 29.685 204.251 30.305C203.981 30.915 203.591 31.37 203.081 31.67C202.581 31.97 201.976 32.12 201.266 32.12ZM201.671 30.2C202.051 30.2 202.396 30.11 202.706 29.93C203.016 29.75 203.261 29.495 203.441 29.165C203.631 28.825 203.726 28.425 203.726 27.965C203.726 27.495 203.631 27.095 203.441 26.765C203.261 26.435 203.016 26.18 202.706 26C202.396 25.82 202.051 25.73 201.671 25.73C201.281 25.73 200.931 25.82 200.621 26C200.311 26.18 200.061 26.435 199.871 26.765C199.691 27.095 199.601 27.495 199.601 27.965C199.601 28.425 199.691 28.825 199.871 29.165C200.061 29.495 200.311 29.75 200.621 29.93C200.931 30.11 201.281 30.2 201.671 30.2ZM203.786 32V30.35L203.831 27.95L203.681 25.565V20.87H206.021V32H203.786ZM212.042 32.12C211.122 32.12 210.312 31.94 209.612 31.58C208.922 31.22 208.387 30.73 208.007 30.11C207.627 29.48 207.437 28.765 207.437 27.965C207.437 27.155 207.622 26.44 207.992 25.82C208.372 25.19 208.887 24.7 209.537 24.35C210.187 23.99 210.922 23.81 211.742 23.81C212.532 23.81 213.242 23.98 213.872 24.32C214.512 24.65 215.017 25.13 215.387 25.76C215.757 26.38 215.942 27.125 215.942 27.995C215.942 28.085 215.937 28.19 215.927 28.31C215.917 28.42 215.907 28.525 215.897 28.625H209.342V27.26H214.667L213.767 27.665C213.767 27.245 213.682 26.88 213.512 26.57C213.342 26.26 213.107 26.02 212.807 25.85C212.507 25.67 212.157 25.58 211.757 25.58C211.357 25.58 211.002 25.67 210.692 25.85C210.392 26.02 210.157 26.265 209.987 26.585C209.817 26.895 209.732 27.265 209.732 27.695V28.055C209.732 28.495 209.827 28.885 210.017 29.225C210.217 29.555 210.492 29.81 210.842 29.99C211.202 30.16 211.622 30.245 212.102 30.245C212.532 30.245 212.907 30.18 213.227 30.05C213.557 29.92 213.857 29.725 214.127 29.465L215.372 30.815C215.002 31.235 214.537 31.56 213.977 31.79C213.417 32.01 212.772 32.12 212.042 32.12Z" fill="white"/>
<rect x="1" y="1" width="49.2222" height="51.3889" rx="24.6111" fill="#709276"/>
<path d="M22.5555 37.4056V16.8722H28.2889V37.4056H22.5555ZM14.8666 29.85V24.4278H36.0222V29.85H14.8666Z" fill="white"/>
<rect x="1" y="1" width="49.2222" height="51.3889" rx="24.6111" stroke="white" stroke-opacity="0.12"/>
<defs>
<linearGradient id="paint0_linear_295_16" x1="4" y1="26.5" x2="246" y2="26.5" gradientUnits="userSpaceOnUse">
<stop stop-color="#66836A"/>
<stop offset="1" stop-color="#97B29A"/>
</linearGradient>
</defs>
</svg>
