<svg width="312" height="30" viewBox="0 0 312 30" fill="none" xmlns="http://www.w3.org/2000/svg">
<rect y="22" width="312" height="8" rx="4" fill="#2E2E2E"/>
<path d="M0 26C0 23.7909 1.79086 22 4 22H251.646V30H4C1.79086 30 0 28.2091 0 26Z" fill="url(#paint0_linear_295_10)"/>
<path d="M243.948 12.144C243.244 12.144 242.628 12.04 242.1 11.832C241.572 11.616 241.16 11.316 240.864 10.932C240.568 10.54 240.42 10.084 240.42 9.564C240.42 9.044 240.564 8.604 240.852 8.244C241.148 7.876 241.56 7.6 242.088 7.416C242.616 7.224 243.236 7.128 243.948 7.128C244.668 7.128 245.292 7.224 245.82 7.416C246.356 7.6 246.768 7.876 247.056 8.244C247.352 8.604 247.5 9.044 247.5 9.564C247.5 10.084 247.352 10.54 247.056 10.932C246.76 11.316 246.344 11.616 245.808 11.832C245.28 12.04 244.66 12.144 243.948 12.144ZM243.948 10.716C244.436 10.716 244.82 10.608 245.1 10.392C245.388 10.176 245.532 9.88 245.532 9.504C245.532 9.128 245.388 8.836 245.1 8.628C244.82 8.412 244.436 8.304 243.948 8.304C243.468 8.304 243.088 8.412 242.808 8.628C242.528 8.836 242.388 9.128 242.388 9.504C242.388 9.88 242.528 10.176 242.808 10.392C243.088 10.608 243.468 10.716 243.948 10.716ZM243.948 8.112C243.3 8.112 242.732 8.024 242.244 7.848C241.764 7.672 241.388 7.416 241.116 7.08C240.852 6.736 240.72 6.328 240.72 5.856C240.72 5.36 240.856 4.936 241.128 4.584C241.4 4.224 241.78 3.948 242.268 3.756C242.756 3.556 243.316 3.456 243.948 3.456C244.596 3.456 245.16 3.556 245.64 3.756C246.128 3.948 246.508 4.224 246.78 4.584C247.06 4.936 247.2 5.36 247.2 5.856C247.2 6.328 247.064 6.736 246.792 7.08C246.528 7.416 246.152 7.672 245.664 7.848C245.176 8.024 244.604 8.112 243.948 8.112ZM243.948 6.972C244.356 6.972 244.676 6.88 244.908 6.696C245.148 6.512 245.268 6.26 245.268 5.94C245.268 5.604 245.144 5.344 244.896 5.16C244.656 4.976 244.34 4.884 243.948 4.884C243.564 4.884 243.252 4.976 243.012 5.16C242.772 5.344 242.652 5.604 242.652 5.94C242.652 6.26 242.768 6.512 243 6.696C243.232 6.88 243.548 6.972 243.948 6.972ZM248.198 12V10.74L251.438 7.68C251.694 7.448 251.882 7.24 252.002 7.056C252.122 6.872 252.202 6.704 252.242 6.552C252.29 6.4 252.314 6.26 252.314 6.132C252.314 5.796 252.198 5.54 251.966 5.364C251.742 5.18 251.41 5.088 250.97 5.088C250.618 5.088 250.29 5.156 249.986 5.292C249.69 5.428 249.438 5.64 249.23 5.928L247.814 5.016C248.134 4.536 248.582 4.156 249.158 3.876C249.734 3.596 250.398 3.456 251.15 3.456C251.774 3.456 252.318 3.56 252.782 3.768C253.254 3.968 253.618 4.252 253.874 4.62C254.138 4.988 254.27 5.428 254.27 5.94C254.27 6.212 254.234 6.484 254.162 6.756C254.098 7.02 253.962 7.3 253.754 7.596C253.554 7.892 253.258 8.224 252.866 8.592L250.178 11.124L249.806 10.416H254.546V12H248.198ZM256.557 12L262.293 3.6H263.721L257.985 12H256.557ZM257.289 8.136C256.881 8.136 256.521 8.044 256.209 7.86C255.897 7.668 255.649 7.4 255.465 7.056C255.289 6.704 255.201 6.292 255.201 5.82C255.201 5.348 255.289 4.94 255.465 4.596C255.649 4.252 255.897 3.984 256.209 3.792C256.521 3.6 256.881 3.504 257.289 3.504C257.697 3.504 258.057 3.6 258.369 3.792C258.681 3.984 258.925 4.252 259.101 4.596C259.277 4.94 259.365 5.348 259.365 5.82C259.365 6.292 259.277 6.704 259.101 7.056C258.925 7.4 258.681 7.668 258.369 7.86C258.057 8.044 257.697 8.136 257.289 8.136ZM257.289 7.152C257.553 7.152 257.765 7.044 257.925 6.828C258.085 6.604 258.165 6.268 258.165 5.82C258.165 5.372 258.085 5.04 257.925 4.824C257.765 4.6 257.553 4.488 257.289 4.488C257.033 4.488 256.821 4.6 256.653 4.824C256.493 5.04 256.413 5.372 256.413 5.82C256.413 6.26 256.493 6.592 256.653 6.816C256.821 7.04 257.033 7.152 257.289 7.152ZM262.989 12.096C262.589 12.096 262.229 12.004 261.909 11.82C261.597 11.628 261.353 11.36 261.177 11.016C261.001 10.664 260.913 10.252 260.913 9.78C260.913 9.308 261.001 8.9 261.177 8.556C261.353 8.212 261.597 7.944 261.909 7.752C262.229 7.56 262.589 7.464 262.989 7.464C263.405 7.464 263.769 7.56 264.081 7.752C264.393 7.944 264.637 8.212 264.813 8.556C264.989 8.9 265.077 9.308 265.077 9.78C265.077 10.252 264.989 10.664 264.813 11.016C264.637 11.36 264.393 11.628 264.081 11.82C263.769 12.004 263.405 12.096 262.989 12.096ZM262.989 11.112C263.253 11.112 263.465 11.004 263.625 10.788C263.785 10.564 263.865 10.228 263.865 9.78C263.865 9.34 263.785 9.008 263.625 8.784C263.465 8.56 263.253 8.448 262.989 8.448C262.733 8.448 262.521 8.56 262.353 8.784C262.193 9 262.113 9.332 262.113 9.78C262.113 10.228 262.193 10.564 262.353 10.788C262.521 11.004 262.733 11.112 262.989 11.112Z" fill="#2E2E2E"/>
<defs>
<linearGradient id="paint0_linear_295_10" x1="1.17182e-07" y1="26" x2="251.646" y2="26" gradientUnits="userSpaceOnUse">
<stop stop-color="#5C7961"/>
<stop offset="1" stop-color="#A5C0A7"/>
</linearGradient>
</defs>
</svg>
